<?xml version="1.0" encoding="UTF-8" standalone="no"?>
<!DOCTYPE svg PUBLIC "-//W3C//DTD SVG 1.1//EN"
 "http://www.w3.org/Graphics/SVG/1.1/DTD/svg11.dtd">
<!-- Generated by graphviz version 2.26.0 (20091210.2329)
 -->
<!-- Title: G Pages: 1 -->
<svg width="260pt" height="662pt"
 viewBox="0.00 0.00 260.00 662.00" xmlns="http://www.w3.org/2000/svg" xmlns:xlink="http://www.w3.org/1999/xlink">
<g id="graph1" class="graph" transform="scale(1 1) rotate(0) translate(4 658)">
<title>G</title>
<polygon fill="white" stroke="white" points="-4,5 -4,-658 257,-658 257,5 -4,5"/>
<g id="graph2" class="cluster"><title>cluster_JohnVanOrange</title>
<polyline fill="none" stroke="gray" points="20,-46 232,-46 "/>
<path fill="none" stroke="gray" d="M232,-46C238,-46 244,-52 244,-58"/>
<polyline fill="none" stroke="gray" points="244,-58 244,-634 "/>
<path fill="none" stroke="gray" d="M244,-634C244,-640 238,-646 232,-646"/>
<polyline fill="none" stroke="gray" points="232,-646 20,-646 "/>
<path fill="none" stroke="gray" d="M20,-646C14,-646 8,-640 8,-634"/>
<polyline fill="none" stroke="gray" points="8,-634 8,-58 "/>
<path fill="none" stroke="gray" d="M8,-58C8,-52 14,-46 20,-46"/>
<text text-anchor="middle" x="126" y="-632.1" font-family="Times Roman,serif" font-size="11.00" fill="gray">JohnVanOrange</text>
</g>
<g id="graph3" class="cluster"><title>cluster_JohnVanOrange\jvo</title>
<polyline fill="none" stroke="gray" points="28,-54 224,-54 "/>
<path fill="none" stroke="gray" d="M224,-54C230,-54 236,-60 236,-66"/>
<polyline fill="none" stroke="gray" points="236,-66 236,-603 "/>
<path fill="none" stroke="gray" d="M236,-603C236,-609 230,-615 224,-615"/>
<polyline fill="none" stroke="gray" points="224,-615 28,-615 "/>
<path fill="none" stroke="gray" d="M28,-615C22,-615 16,-609 16,-603"/>
<polyline fill="none" stroke="gray" points="16,-603 16,-66 "/>
<path fill="none" stroke="gray" d="M16,-66C16,-60 22,-54 28,-54"/>
<text text-anchor="middle" x="126" y="-601.1" font-family="Times Roman,serif" font-size="11.00" fill="gray">jvo</text>
</g>
<!-- \\JohnVanOrange\\jvo\\Tag -->
<g id="node3" class="node"><title>\\JohnVanOrange\\jvo\\Tag</title>
<a xlink:href="Tag.html" xlink:title="Tag" target="_parent">
<polygon fill="none" stroke="black" points="219,-584 165,-584 165,-548 219,-548 219,-584"/>
<text text-anchor="middle" x="192" y="-563.1" font-family="Courier,monospace" font-size="11.00">Tag</text>
</a>
</g>
<!-- \\JohnVanOrange\\jvo\\Base -->
<g id="node12" class="node"><title>\\JohnVanOrange\\jvo\\Base</title>
<a xlink:href="Base.html" xlink:title="Base" target="_parent">
<polygon fill="none" stroke="black" points="78,-368 24,-368 24,-332 78,-332 78,-368"/>
<text text-anchor="middle" x="51" y="-347.1" font-family="Courier,monospace" font-size="11.00">Base</text>
</a>
</g>
<!-- \\JohnVanOrange\\jvo\\Tag&#45;&gt;\\JohnVanOrange\\jvo\\Base -->
<g id="edge4" class="edge"><title>\\JohnVanOrange\\jvo\\Tag&#45;&gt;\\JohnVanOrange\\jvo\\Base</title>
<path fill="none" stroke="black" d="M164.939,-547.722C161.741,-544.994 158.67,-542.062 156,-539 112.063,-488.621 78.4434,-416.872 62.0486,-377.865"/>
<polygon fill="none" stroke="black" points="65.1223,-376.138 58.071,-368.231 58.6521,-378.809 65.1223,-376.138"/>
</g>
<!-- \\JohnVanOrange\\jvo\\Theme -->
<g id="node4" class="node"><title>\\JohnVanOrange\\jvo\\Theme</title>
<a xlink:href="Theme.html" xlink:title="Theme" target="_parent">
<polygon fill="none" stroke="black" points="219,-530 165,-530 165,-494 219,-494 219,-530"/>
<text text-anchor="middle" x="192" y="-509.1" font-family="Courier,monospace" font-size="11.00">Theme</text>
</a>
</g>
<!-- \\JohnVanOrange\\jvo\\Theme&#45;&gt;\\JohnVanOrange\\jvo\\Base -->
<g id="edge6" class="edge"><title>\\JohnVanOrange\\jvo\\Theme&#45;&gt;\\JohnVanOrange\\jvo\\Base</title>
<path fill="none" stroke="black" d="M166.128,-493.925C162.599,-491.083 159.121,-488.066 156,-485 121.41,-451.011 88.2181,-405.443 68.7195,-376.904"/>
<polygon fill="none" stroke="black" points="71.3852,-374.598 62.8855,-368.273 65.5858,-378.518 71.3852,-374.598"/>
</g>
<!-- \\JohnVanOrange\\jvo\\Media -->
<g id="node5" class="node"><title>\\JohnVanOrange\\jvo\\Media</title>
<a xlink:href="Media.html" xlink:title="Media" target="_parent">
<polygon fill="none" stroke="black" points="219,-476 165,-476 165,-440 219,-440 219,-476"/>
<text text-anchor="middle" x="192" y="-455.1" font-family="Courier,monospace" font-size="11.00">Media</text>
</a>
</g>
<!-- \\JohnVanOrange\\jvo\\Media&#45;&gt;\\JohnVanOrange\\jvo\\Base -->
<g id="edge8" class="edge"><title>\\JohnVanOrange\\jvo\\Media&#45;&gt;\\JohnVanOrange\\jvo\\Base</title>
<path fill="none" stroke="black" d="M167.566,-439.745C163.69,-436.829 159.731,-433.838 156,-431 131.198,-412.134 103.271,-390.575 82.4559,-374.444"/>
<polygon fill="none" stroke="black" points="84.3314,-371.469 74.2843,-368.107 80.0417,-377.001 84.3314,-371.469"/>
</g>
<!-- \\JohnVanOrange\\jvo\\Refresh -->
<g id="node6" class="node"><title>\\JohnVanOrange\\jvo\\Refresh</title>
<a xlink:href="Refresh.html" xlink:title="Refresh" target="_parent">
<polygon fill="none" stroke="black" points="224,-422 160,-422 160,-386 224,-386 224,-422"/>
<text text-anchor="middle" x="192" y="-401.1" font-family="Courier,monospace" font-size="11.00">Refresh</text>
</a>
</g>
<!-- \\JohnVanOrange\\jvo\\Refresh&#45;&gt;\\JohnVanOrange\\jvo\\Base -->
<g id="edge10" class="edge"><title>\\JohnVanOrange\\jvo\\Refresh&#45;&gt;\\JohnVanOrange\\jvo\\Base</title>
<path fill="none" stroke="black" d="M159.652,-391.611C138.263,-383.42 110.17,-372.661 87.9081,-364.135"/>
<polygon fill="none" stroke="black" points="89.0393,-360.82 78.4489,-360.512 86.5357,-367.357 89.0393,-360.82"/>
</g>
<!-- \\JohnVanOrange\\jvo\\DB -->
<g id="node7" class="node"><title>\\JohnVanOrange\\jvo\\DB</title>
<a xlink:href="DB.html" xlink:title="DB" target="_parent">
<polygon fill="none" stroke="black" points="219,-98 165,-98 165,-62 219,-62 219,-98"/>
<text text-anchor="middle" x="192" y="-77.1" font-family="Courier,monospace" font-size="11.00">DB</text>
</a>
</g>
<!-- \\PDO -->
<g id="node19" class="node"><title>\\PDO</title>
<ellipse fill="none" stroke="black" cx="51" cy="-19" rx="33.234" ry="19.0919"/>
<text text-anchor="middle" x="51" y="-15.9" font-family="Times Roman,serif" font-size="14.00" fill="gray">\PDO</text>
</g>
<!-- \\JohnVanOrange\\jvo\\DB&#45;&gt;\\PDO -->
<g id="edge12" class="edge"><title>\\JohnVanOrange\\jvo\\DB&#45;&gt;\\PDO</title>
<path fill="none" stroke="black" d="M164.814,-68.2386C142.631,-58.6416 111.106,-45.0033 86.8575,-34.5128"/>
<polygon fill="none" stroke="black" points="88.1922,-31.2768 77.6246,-30.5184 85.4128,-37.7014 88.1922,-31.2768"/>
</g>
<!-- \\JohnVanOrange\\jvo\\Resource -->
<g id="node8" class="node"><title>\\JohnVanOrange\\jvo\\Resource</title>
<a xlink:href="Resource.html" xlink:title="Resource" target="_parent">
<polygon fill="none" stroke="black" points="227,-368 157,-368 157,-332 227,-332 227,-368"/>
<text text-anchor="middle" x="192" y="-347.1" font-family="Courier,monospace" font-size="11.00">Resource</text>
</a>
</g>
<!-- \\JohnVanOrange\\jvo\\Resource&#45;&gt;\\JohnVanOrange\\jvo\\Base -->
<g id="edge14" class="edge"><title>\\JohnVanOrange\\jvo\\Resource&#45;&gt;\\JohnVanOrange\\jvo\\Base</title>
<path fill="none" stroke="black" d="M156.42,-350C135.622,-350 109.4,-350 88.3114,-350"/>
<polygon fill="none" stroke="black" points="88.1132,-346.5 78.1132,-350 88.1132,-353.5 88.1132,-346.5"/>
</g>
<!-- \\JohnVanOrange\\jvo\\Image -->
<g id="node9" class="node"><title>\\JohnVanOrange\\jvo\\Image</title>
<a xlink:href="Image.html" xlink:title="Image" target="_parent">
<polygon fill="none" stroke="black" points="219,-314 165,-314 165,-278 219,-278 219,-314"/>
<text text-anchor="middle" x="192" y="-293.1" font-family="Courier,monospace" font-size="11.00">Image</text>
</a>
</g>
<!-- \\JohnVanOrange\\jvo\\Image&#45;&gt;\\JohnVanOrange\\jvo\\Base -->
<g id="edge16" class="edge"><title>\\JohnVanOrange\\jvo\\Image&#45;&gt;\\JohnVanOrange\\jvo\\Base</title>
<path fill="none" stroke="black" d="M164.814,-306.412C142.869,-314.816 111.784,-326.721 87.6432,-335.966"/>
<polygon fill="none" stroke="black" points="86.1895,-332.775 78.1028,-339.62 88.6931,-339.312 86.1895,-332.775"/>
</g>
<!-- \\JohnVanOrange\\jvo\\Reddit -->
<g id="node10" class="node"><title>\\JohnVanOrange\\jvo\\Reddit</title>
<a xlink:href="Reddit.html" xlink:title="Reddit" target="_parent">
<polygon fill="none" stroke="black" points="220,-260 164,-260 164,-224 220,-224 220,-260"/>
<text text-anchor="middle" x="192" y="-239.1" font-family="Courier,monospace" font-size="11.00">Reddit</text>
</a>
</g>
<!-- \\JohnVanOrange\\jvo\\Reddit&#45;&gt;\\JohnVanOrange\\jvo\\Base -->
<g id="edge18" class="edge"><title>\\JohnVanOrange\\jvo\\Reddit&#45;&gt;\\JohnVanOrange\\jvo\\Base</title>
<path fill="none" stroke="black" d="M167.492,-260.159C163.626,-263.088 159.689,-266.108 156,-269 125.86,-292.634 118.316,-301.978 86.3472,-326.102"/>
<polygon fill="none" stroke="black" points="84.0882,-323.42 78.1633,-332.204 88.2723,-329.032 84.0882,-323.42"/>
</g>
<!-- \\JohnVanOrange\\jvo\\User -->
<g id="node11" class="node"><title>\\JohnVanOrange\\jvo\\User</title>
<a xlink:href="User.html" xlink:title="User" target="_parent">
<polygon fill="none" stroke="black" points="219,-206 165,-206 165,-170 219,-170 219,-206"/>
<text text-anchor="middle" x="192" y="-185.1" font-family="Courier,monospace" font-size="11.00">User</text>
</a>
</g>
<!-- \\JohnVanOrange\\jvo\\User&#45;&gt;\\JohnVanOrange\\jvo\\Base -->
<g id="edge20" class="edge"><title>\\JohnVanOrange\\jvo\\User&#45;&gt;\\JohnVanOrange\\jvo\\Base</title>
<path fill="none" stroke="black" d="M165.485,-206.123C162.127,-208.915 158.867,-211.905 156,-215 117.66,-256.378 124.741,-282.587 85.1189,-325.967"/>
<polygon fill="none" stroke="black" points="82.4205,-323.725 78.0514,-333.377 87.486,-328.556 82.4205,-323.725"/>
</g>
<!-- \\JohnVanOrange\\jvo\\Report -->
<g id="node13" class="node"><title>\\JohnVanOrange\\jvo\\Report</title>
<a xlink:href="Report.html" xlink:title="Report" target="_parent">
<polygon fill="none" stroke="black" points="220,-152 164,-152 164,-116 220,-116 220,-152"/>
<text text-anchor="middle" x="192" y="-131.1" font-family="Courier,monospace" font-size="11.00">Report</text>
</a>
</g>
<!-- \\JohnVanOrange\\jvo\\Report&#45;&gt;\\JohnVanOrange\\jvo\\Base -->
<g id="edge22" class="edge"><title>\\JohnVanOrange\\jvo\\Report&#45;&gt;\\JohnVanOrange\\jvo\\Base</title>
<path fill="none" stroke="black" d="M164.641,-152.031C161.492,-154.8 158.514,-157.809 156,-161 107.941,-222.015 133.552,-262.647 84.438,-326.107"/>
<polygon fill="none" stroke="black" points="81.6483,-323.99 78.0681,-333.962 87.0853,-328.399 81.6483,-323.99"/>
</g>
</g>
</svg>
