<svg xmlns="http://www.w3.org/2000/svg" xmlns:xlink="http://www.w3.org/1999/xlink" version="1.1" id="Layer_1" x="0px" y="0px" width="48px" height="48px" viewBox="0 0 70.8 51.1" style="enable-background:new 0 0 70.8 51.1;" xml:space="preserve">
<g>
	<path fill='#f9c3ed' d="M53.9,14.6c0.6,0.9,1.1,1.8,1.6,2.9s0.7,2.2,0.9,3.3L70.8,27L60,0L53.9,14.6z"></path>
	<path fill='#e342bf' d="M54.5,17.9c-0.3-0.8-0.6-1.4-1-2c-1.7-2.8-4.6-4.7-8.6-5.7c-4.8-1.2-9.8-0.7-15,1.4c-5.3,2-9.3,5.2-12,9.4   c-2.5,4.3-3,8.3-1.5,12.2c1.5,3.8,4.7,6.4,9.5,7.6c4.9,1.2,9.9,0.8,15.1-1.3c5.3-2.1,9.3-5.3,11.9-9.5c2.1-3.5,2.9-6.8,2.2-10   C55,19.3,54.8,18.6,54.5,17.9z M46.5,14.3c0.601,0.4,0.7,0.7,0.3,0.5c-4.8-1.2-9.8-0.7-15.1,1.3c-5.3,2.1-9.3,5.3-11.9,9.6   c-0.2,0.3-0.2,0,0-0.7c0.1-0.9,0.3-1.7,0.8-2.5c2.2-4,5.5-6.9,10.1-8.8c4.6-1.8,9.1-2,13.4-0.6C45,13.4,45.8,13.8,46.5,14.3z"></path>
	<path fill='#f9c3ed' d="M14.601,30.2L0,24.1l10.9,27l6.2-14.6c-0.7-0.8-1.3-1.8-1.7-2.9C14.9,32.5,14.7,31.4,14.601,30.2z"></path>
</g>
</svg>