<?xml version="1.0" encoding="UTF-8" ?>
<!DOCTYPE svg PUBLIC "-//W3C//DTD SVG 1.1//EN" "http://www.w3.org/Graphics/SVG/1.1/DTD/svg11.dtd">
<svg width="337pt" height="332pt" viewBox="0 0 337 332" version="1.1" xmlns="http://www.w3.org/2000/svg">
<path fill="#ffffff" d=" M 0.00 0.00 L 96.90 0.00 C 96.60 1.39 96.00 4.16 95.70 5.54 C 73.73 0.15 52.25 9.01 32.08 16.69 C 37.18 18.99 42.59 20.47 47.92 22.14 C 40.86 26.69 32.89 30.87 28.21 38.11 C 23.39 47.27 17.99 56.10 12.55 64.90 C 16.46 64.81 20.38 64.68 24.29 64.47 C 22.51 70.57 19.57 76.49 19.72 83.01 C 19.44 94.25 21.88 105.31 24.79 116.09 C 27.27 113.68 29.69 111.20 32.14 108.77 C 33.82 111.54 35.51 114.30 37.21 117.06 C 29.96 124.76 22.39 132.90 19.54 143.36 C 16.10 155.26 13.62 167.42 10.29 179.35 C 14.10 177.19 17.68 174.65 21.29 172.18 C 20.15 186.66 18.43 201.20 19.62 215.73 C 23.01 212.84 26.34 209.89 29.58 206.84 C 32.79 219.13 34.21 231.86 38.31 243.93 C 38.98 246.02 40.92 247.26 42.67 248.39 C 47.60 251.45 52.49 254.60 57.11 258.12 C 48.88 265.25 38.19 268.79 30.19 276.19 C 22.68 283.92 24.38 295.19 23.67 304.98 C 15.78 304.99 7.89 305.00 0.00 305.02 L 0.00 0.00 Z" />
<path fill="#000000" d=" M 96.90 0.00 L 98.53 0.00 C 111.49 6.75 123.72 14.86 137.05 20.96 C 146.84 24.99 148.39 37.00 150.86 45.98 C 159.91 39.72 168.15 32.06 178.20 27.40 C 192.82 24.90 207.82 25.02 222.45 22.38 C 218.42 27.32 214.20 32.11 209.99 36.89 C 220.05 40.80 229.62 45.80 239.36 50.42 C 235.45 52.61 231.48 54.70 227.57 56.89 C 229.95 59.34 232.34 61.79 234.78 64.19 C 239.41 58.97 244.02 53.47 250.61 50.64 C 260.12 46.90 270.34 45.58 280.44 44.45 C 286.07 43.89 290.67 48.02 294.96 51.03 C 304.53 58.54 314.86 65.01 324.45 72.51 C 322.19 73.71 319.93 74.89 317.67 76.08 C 325.85 90.16 330.52 106.16 330.45 122.53 C 326.98 121.26 323.53 119.90 320.05 118.67 C 316.08 128.17 314.22 139.03 307.09 146.87 C 301.82 148.11 296.20 147.03 290.90 148.44 C 293.57 163.48 296.56 179.50 291.29 194.30 C 287.47 207.54 283.21 220.75 276.38 232.81 C 274.39 228.85 272.68 224.73 270.88 220.69 C 269.56 225.65 269.42 231.14 266.27 235.41 C 261.30 242.34 254.68 247.85 249.25 254.39 C 255.24 265.05 264.59 273.53 274.12 281.06 C 280.84 287.58 284.66 296.31 288.58 304.64 C 304.72 305.07 320.86 305.05 337.00 305.01 L 337.00 310.01 C 309.89 310.24 282.74 309.23 255.66 310.82 C 248.83 320.20 240.41 329.66 228.50 332.00 L 218.36 332.00 C 212.49 330.38 207.54 326.75 202.38 323.68 C 199.04 321.65 195.03 321.50 191.41 320.26 C 186.65 318.76 183.11 314.97 178.66 312.88 C 174.69 311.76 170.59 311.23 166.53 310.56 C 163.86 315.32 161.88 321.01 156.97 323.94 C 149.18 329.30 139.26 327.07 130.48 329.17 C 114.74 333.70 98.40 324.26 91.14 310.36 C 60.77 309.63 30.38 310.13 0.00 310.00 L 0.00 305.02 C 7.89 305.00 15.78 304.99 23.67 304.98 C 24.38 295.19 22.68 283.92 30.19 276.19 C 38.19 268.79 48.88 265.25 57.11 258.12 C 52.49 254.60 47.60 251.45 42.67 248.39 C 40.92 247.26 38.98 246.02 38.31 243.93 C 34.21 231.86 32.79 219.13 29.58 206.84 C 26.34 209.89 23.01 212.84 19.62 215.73 C 18.43 201.20 20.15 186.66 21.29 172.18 C 17.68 174.65 14.10 177.19 10.29 179.35 C 13.62 167.42 16.10 155.26 19.54 143.36 C 22.39 132.90 29.96 124.76 37.21 117.06 C 35.51 114.30 33.82 111.54 32.14 108.77 C 29.69 111.20 27.27 113.68 24.79 116.09 C 21.88 105.31 19.44 94.25 19.72 83.01 C 19.57 76.49 22.51 70.57 24.29 64.47 C 20.38 64.68 16.46 64.81 12.55 64.90 C 17.99 56.10 23.39 47.27 28.21 38.11 C 32.89 30.87 40.86 26.69 47.92 22.14 C 42.59 20.47 37.18 18.99 32.08 16.69 C 52.25 9.01 73.73 0.15 95.70 5.54 C 96.00 4.16 96.60 1.39 96.90 0.00 Z" />
<path fill="#ffffff" d=" M 98.53 0.00 L 337.00 0.00 L 337.00 305.01 C 320.86 305.05 304.72 305.07 288.58 304.64 C 284.66 296.31 280.84 287.58 274.12 281.06 C 264.59 273.53 255.24 265.05 249.25 254.39 C 254.68 247.85 261.30 242.34 266.27 235.41 C 269.42 231.14 269.56 225.65 270.88 220.69 C 272.68 224.73 274.39 228.85 276.38 232.81 C 283.21 220.75 287.47 207.54 291.29 194.30 C 296.56 179.50 293.57 163.48 290.90 148.44 C 296.20 147.03 301.82 148.11 307.09 146.87 C 314.22 139.03 316.08 128.17 320.05 118.67 C 323.53 119.90 326.98 121.26 330.45 122.53 C 330.52 106.16 325.85 90.16 317.67 76.08 C 319.93 74.89 322.19 73.71 324.45 72.51 C 314.86 65.01 304.53 58.54 294.96 51.03 C 290.67 48.02 286.07 43.89 280.44 44.45 C 270.34 45.58 260.12 46.90 250.61 50.64 C 244.02 53.47 239.41 58.97 234.78 64.19 C 232.34 61.79 229.95 59.34 227.57 56.89 C 231.48 54.70 235.45 52.61 239.36 50.42 C 229.62 45.80 220.05 40.80 209.99 36.89 C 214.20 32.11 218.42 27.32 222.45 22.38 C 207.82 25.02 192.82 24.90 178.20 27.40 C 168.15 32.06 159.91 39.72 150.86 45.98 C 148.39 37.00 146.84 24.99 137.05 20.96 C 123.72 14.86 111.49 6.75 98.53 0.00 Z" />
<path fill="#ffffff" d=" M 102.81 6.68 C 114.63 13.04 126.43 19.72 137.04 27.98 C 142.89 34.32 146.25 42.55 148.84 50.69 C 161.03 47.66 169.58 37.87 180.69 32.68 C 187.89 29.44 195.92 30.11 203.62 30.11 C 200.08 33.86 196.24 37.32 192.67 41.04 C 199.24 41.58 206.13 40.71 212.35 43.42 C 218.33 45.56 224.54 47.02 230.52 49.16 C 222.62 52.38 214.74 56.69 205.97 56.72 C 199.87 56.35 194.29 53.72 188.38 52.45 C 192.74 55.25 197.19 58.11 202.21 59.60 C 208.78 60.18 215.40 59.97 221.94 59.18 C 226.06 63.80 230.74 67.83 235.86 71.30 C 246.64 62.04 258.21 51.91 272.93 50.20 C 285.08 51.75 295.63 58.26 306.41 63.55 C 310.27 65.45 313.63 68.20 316.89 70.98 C 314.25 71.70 311.61 72.42 308.99 73.15 C 318.23 84.60 325.88 98.23 326.27 113.31 C 322.73 111.39 319.27 109.33 315.69 107.48 C 312.44 116.56 312.95 126.95 307.05 135.02 C 302.57 141.96 294.07 144.31 286.37 145.35 C 282.02 139.27 276.45 134.12 272.33 127.89 C 270.12 119.52 270.77 106.65 260.52 103.44 C 260.96 108.77 262.24 113.99 263.10 119.26 C 263.00 133.08 278.11 138.46 282.84 150.07 C 287.76 162.52 289.00 176.19 288.70 189.48 C 287.03 185.74 285.57 181.91 283.96 178.15 C 283.02 178.08 281.14 177.92 280.20 177.85 C 278.96 185.07 282.58 191.90 282.80 199.06 C 283.93 207.32 280.79 215.17 277.53 222.56 C 275.05 216.18 273.83 208.84 268.27 204.27 C 267.34 210.08 267.69 216.19 265.64 221.78 C 261.14 231.76 257.41 242.75 248.11 249.41 C 246.65 244.81 245.34 240.18 243.88 235.59 C 240.14 240.53 236.55 245.95 230.92 248.91 C 224.39 252.97 216.56 253.99 209.13 255.34 C 208.61 253.89 208.09 252.45 207.58 251.01 C 202.05 255.53 196.31 259.90 189.83 262.98 C 182.89 266.56 175.46 270.83 167.38 270.41 C 158.03 268.49 149.82 263.13 141.95 257.98 C 141.48 258.25 140.53 258.79 140.06 259.06 C 141.07 260.66 142.07 262.26 143.06 263.87 C 137.93 262.28 132.66 261.20 127.45 259.91 C 122.04 255.59 121.96 247.74 116.69 243.31 C 111.27 237.01 102.57 235.67 94.86 234.30 C 78.78 230.46 66.31 243.33 55.86 253.29 C 49.01 246.44 47.09 236.93 45.10 227.86 C 43.05 228.60 41.02 229.35 38.97 230.10 C 35.74 218.20 34.38 205.92 32.69 193.74 C 29.80 195.90 26.94 198.10 24.03 200.24 C 26.22 183.69 29.06 167.23 32.42 150.89 C 27.91 155.39 23.75 160.24 19.05 164.55 C 20.07 157.31 21.16 149.74 25.65 143.70 C 30.25 136.95 33.70 129.36 39.22 123.28 C 43.00 121.56 47.54 123.99 51.46 123.63 C 44.38 116.08 39.87 106.74 36.63 97.00 C 33.69 98.64 30.83 100.41 27.97 102.19 C 27.12 96.73 25.35 91.26 25.73 85.69 C 27.79 74.96 30.26 64.26 34.05 54.00 C 30.99 55.20 27.93 56.41 24.78 57.36 C 29.49 49.06 32.76 39.60 40.15 33.15 C 47.09 26.31 56.69 23.88 65.55 20.71 C 60.21 19.55 54.82 18.64 49.51 17.38 C 61.88 9.80 77.24 6.98 91.38 10.56 C 97.14 11.97 102.38 14.84 107.95 16.79 C 106.25 13.41 104.47 10.08 102.81 6.68 Z" />
<path fill="#000000" d=" M 90.06 37.83 C 92.40 36.90 95.34 35.23 97.45 37.53 C 104.33 44.63 111.07 52.88 121.06 55.50 C 117.72 56.03 112.32 54.16 110.08 57.92 C 106.54 63.45 103.42 69.28 99.26 74.40 C 100.73 70.32 103.42 66.54 103.75 62.13 C 103.13 56.55 102.33 50.19 97.21 46.82 C 91.17 41.11 82.31 44.95 75.33 46.29 C 68.57 46.99 64.62 53.03 60.97 58.00 C 57.74 62.93 54.36 68.44 55.42 74.65 C 56.52 81.26 62.35 85.51 67.40 89.16 C 70.03 87.51 72.75 86.01 75.60 84.78 C 72.56 90.28 67.28 94.15 61.67 96.76 C 61.59 95.50 61.51 94.24 61.42 92.98 C 57.00 89.59 55.08 84.12 53.01 79.13 C 52.13 75.05 49.17 70.46 51.21 66.21 C 54.63 59.01 58.21 51.59 63.44 45.54 C 72.07 42.17 81.56 41.58 90.06 37.83 Z" />
<path fill="#000000" d=" M 255.77 93.88 C 252.65 85.79 256.03 77.24 261.30 70.93 C 270.54 76.14 281.83 69.79 291.22 74.87 C 295.73 79.30 299.72 84.31 303.19 89.61 C 297.59 87.84 293.84 83.13 289.04 80.05 C 281.80 77.20 273.81 78.54 266.22 78.18 C 263.32 83.76 260.40 89.51 255.77 93.88 Z" />
<path fill="#000000" d=" M 140.72 108.14 C 149.10 104.49 157.46 100.78 166.02 97.55 C 166.85 99.49 167.66 101.43 168.45 103.39 C 153.20 104.87 138.27 110.50 126.80 120.82 C 119.14 128.37 116.47 139.13 110.41 147.74 C 111.83 139.17 116.00 131.42 119.63 123.63 C 124.01 116.29 127.88 107.62 136.06 103.77 C 137.85 104.95 139.25 106.60 140.72 108.14 Z" />
<path fill="#000000" d=" M 291.55 116.69 C 294.09 112.32 295.58 107.37 298.59 103.26 C 297.02 110.00 295.60 117.04 291.99 123.00 C 289.02 127.51 282.99 128.73 278.44 125.89 C 283.04 123.21 288.13 120.93 291.55 116.69 Z" />
<path fill="#000000" d=" M 212.44 106.99 C 220.13 110.91 225.59 117.57 230.91 124.13 C 229.83 120.45 228.73 116.78 228.08 113.00 C 233.61 116.50 236.15 122.92 238.15 128.88 C 241.15 139.03 242.83 149.50 245.11 159.82 C 244.57 160.15 243.49 160.81 242.95 161.14 C 239.95 152.14 238.60 142.45 233.59 134.27 C 226.96 124.85 218.28 116.98 212.44 106.99 Z" />
<path fill="#000000" d=" M 133.08 147.08 C 136.51 144.87 140.74 145.82 144.59 146.03 C 136.86 150.44 126.68 153.00 122.97 161.99 C 120.50 166.00 120.42 170.81 119.86 175.34 C 125.90 168.91 131.07 161.51 138.16 156.14 C 145.40 151.94 154.41 150.45 162.30 153.69 C 161.85 155.44 161.39 157.20 160.94 158.96 C 156.44 157.26 151.65 156.57 146.92 157.73 C 148.37 166.85 150.22 177.44 144.47 185.55 C 139.04 191.71 129.74 189.87 125.30 183.75 C 127.51 182.51 129.74 181.30 131.95 180.06 C 131.95 179.10 131.96 177.19 131.97 176.24 C 128.69 176.47 124.57 176.46 122.79 179.80 C 121.17 182.69 118.42 186.25 120.30 189.63 C 122.74 193.89 124.81 199.10 129.34 201.58 C 136.70 202.55 144.05 199.22 149.60 194.61 C 154.85 186.58 154.76 176.65 156.43 167.52 C 157.17 167.36 158.64 167.05 159.37 166.89 C 160.39 180.02 156.64 194.44 146.20 203.17 C 142.10 206.54 136.47 206.31 131.50 206.67 C 128.93 201.35 120.55 203.96 119.15 197.94 C 117.13 188.43 114.45 178.22 117.57 168.64 C 120.04 159.95 125.57 152.14 133.08 147.08 Z" />
<path fill="#000000" d=" M 216.59 152.48 C 218.38 151.83 220.19 151.20 221.99 150.58 C 226.42 155.21 232.30 158.68 235.81 164.13 C 239.09 172.10 239.89 181.46 237.39 189.76 C 236.31 182.54 236.24 175.07 233.84 168.10 C 230.09 161.03 222.68 157.23 216.59 152.48 Z" />
<path fill="#000000" d=" M 204.43 156.36 C 209.82 157.15 215.43 158.09 220.21 160.83 C 231.75 170.29 234.53 186.61 232.70 200.70 C 231.91 205.08 228.53 208.54 225.02 210.97 C 220.72 212.07 216.04 211.69 211.70 211.16 C 203.25 206.15 200.52 195.69 199.47 186.55 C 197.57 176.01 203.75 166.64 204.43 156.36 Z" />
<path fill="#ffffff" d=" M 224.33 175.64 C 227.43 180.83 231.61 186.17 230.56 192.62 C 230.27 197.32 228.15 201.65 225.32 205.32 C 221.80 209.70 214.10 210.26 210.74 205.27 C 203.30 198.83 203.95 188.21 203.70 179.25 C 204.83 178.82 205.97 178.40 207.10 177.97 C 208.55 178.77 210.00 179.58 211.45 180.39 C 209.84 182.57 208.15 184.69 206.45 186.80 C 209.96 189.02 214.90 191.52 218.70 188.71 C 222.84 185.74 222.80 180.05 224.33 175.64 Z" />
<path fill="#000000" d=" M 164.40 203.49 C 172.81 202.06 180.99 204.96 189.00 207.04 C 194.01 208.74 200.03 210.39 202.07 215.95 C 204.21 219.02 202.54 223.05 201.07 226.03 C 197.36 234.36 188.56 239.88 179.57 240.50 C 171.59 242.58 164.58 236.89 159.76 231.25 C 155.47 225.63 150.89 219.05 151.50 211.61 C 152.47 205.68 159.30 203.77 164.40 203.49 Z" />
<path fill="#ffffff" d=" M 158.10 215.02 C 164.66 211.41 172.40 210.54 179.68 212.14 C 174.08 215.46 169.20 221.51 162.32 221.90 C 160.46 219.92 159.31 217.42 158.10 215.02 Z" />
<path fill="#000000" d=" M 125.65 218.68 C 128.30 215.47 133.09 217.85 136.62 218.08 C 133.67 219.10 130.71 220.04 127.75 221.02 C 127.04 223.63 126.36 226.21 125.74 228.86 C 124.85 228.88 123.08 228.90 122.19 228.92 C 123.08 225.55 122.99 221.35 125.65 218.68 Z" />
<path fill="#000000" d=" M 126.78 226.28 C 127.91 225.44 129.04 224.61 130.17 223.79 C 133.43 232.27 135.82 241.77 143.26 247.70 C 148.95 251.69 156.27 251.93 162.79 253.64 C 165.63 250.64 168.37 247.55 171.42 244.77 C 169.79 248.92 168.20 253.87 164.37 256.40 C 156.98 257.87 147.75 257.73 142.14 251.87 C 134.52 245.14 130.01 235.75 126.78 226.28 Z" />
<path fill="#000000" d=" M 205.86 231.87 C 207.82 233.61 209.53 235.59 210.91 237.84 C 200.89 243.30 196.77 255.42 186.32 260.30 C 182.10 261.49 177.56 260.83 173.44 259.65 C 172.21 258.19 171.41 256.44 170.55 254.76 C 179.40 255.34 189.16 254.43 195.80 247.80 C 200.89 243.73 203.59 237.79 205.86 231.87 Z" />
<path fill="#ffffff" d=" M 68.06 246.96 C 76.49 240.05 88.06 237.84 98.65 240.16 C 103.81 241.34 109.87 241.33 114.14 244.85 C 116.34 248.01 116.41 252.17 117.43 255.82 C 101.63 257.63 84.99 258.68 70.91 266.80 C 62.84 271.04 56.21 277.53 50.68 284.69 C 51.16 284.95 52.13 285.46 52.62 285.72 C 58.73 279.60 65.56 273.57 74.03 271.06 C 80.75 269.13 86.74 264.84 93.91 264.63 C 105.64 263.26 117.58 261.09 129.30 263.79 C 139.03 266.74 147.20 273.00 155.60 278.47 C 160.19 281.47 162.35 286.72 165.31 291.10 C 163.25 284.10 159.89 277.57 155.97 271.45 C 163.26 273.61 171.66 276.61 178.84 272.88 C 187.64 268.58 195.36 262.49 203.84 257.64 C 210.30 258.18 216.88 259.34 223.37 258.37 C 229.55 256.71 234.95 253.05 240.50 249.97 C 243.17 255.13 245.71 260.35 248.17 265.62 C 234.94 264.20 221.29 262.83 208.19 265.92 C 198.56 267.79 191.27 274.98 185.07 282.08 C 180.41 286.54 178.53 293.51 180.06 299.74 C 184.44 292.88 186.29 284.12 193.11 279.07 C 199.57 274.69 207.74 274.00 215.11 272.01 C 229.41 269.02 245.19 266.35 258.80 273.26 C 269.18 280.57 274.77 292.42 279.47 303.84 C 270.73 303.37 261.98 303.06 253.24 302.96 C 248.63 313.08 241.71 323.04 230.56 326.49 C 224.82 327.06 218.63 327.92 213.05 325.98 C 206.70 323.09 202.82 316.73 200.82 310.30 C 199.79 305.12 200.86 299.77 200.74 294.54 C 199.92 294.33 198.28 293.91 197.46 293.70 C 194.55 301.07 196.17 309.13 196.51 316.79 C 192.91 314.82 188.39 313.66 186.17 309.95 C 184.98 308.08 183.98 306.11 182.90 304.18 C 178.20 304.45 173.49 304.71 168.79 304.95 C 168.05 301.13 167.17 297.36 165.99 293.66 C 164.23 300.19 162.15 306.62 160.10 313.06 C 159.74 320.95 150.32 321.46 145.13 324.44 C 145.63 318.80 146.37 313.16 146.04 307.49 C 141.64 314.00 137.97 321.96 130.46 325.39 C 119.71 326.56 106.49 324.77 99.52 315.46 C 95.67 308.46 93.81 300.57 92.54 292.75 C 90.64 293.44 88.76 294.18 86.89 294.96 C 87.69 298.29 88.50 301.59 89.23 304.93 C 70.10 305.04 50.97 305.05 31.83 304.94 C 32.72 302.78 33.63 300.64 34.52 298.49 C 27.98 291.44 34.61 282.15 38.59 275.51 C 45.41 269.61 54.74 266.84 60.52 259.60 C 63.82 255.88 65.26 250.99 68.06 246.96 Z" />
<path fill="#ffffff" d=" M 0.00 310.00 C 30.38 310.13 60.77 309.63 91.14 310.36 C 98.40 324.26 114.74 333.70 130.48 329.17 C 139.26 327.07 149.18 329.30 156.97 323.94 C 161.88 321.01 163.86 315.32 166.53 310.56 C 170.59 311.23 174.69 311.76 178.66 312.88 C 183.11 314.97 186.65 318.76 191.41 320.26 C 195.03 321.50 199.04 321.65 202.38 323.68 C 207.54 326.75 212.49 330.38 218.36 332.00 L 0.00 332.00 L 0.00 310.00 Z" />
<path fill="#ffffff" d=" M 255.66 310.82 C 282.74 309.23 309.89 310.24 337.00 310.01 L 337.00 332.00 L 228.50 332.00 C 240.41 329.66 248.83 320.20 255.66 310.82 Z" />
</svg>
