<?xml version="1.0" encoding="UTF-8" ?>
<!DOCTYPE svg PUBLIC "-//W3C//DTD SVG 1.1//EN" "http://www.w3.org/Graphics/SVG/1.1/DTD/svg11.dtd">
<svg width="36pt" height="36pt" viewBox="0 0 358 358" version="1.1" xmlns="http://www.w3.org/2000/svg">
<path fill="rgba(255,255,255,0)" d=" M 0.00 0.00 L 358.00 0.00 L 358.00 358.00 L 0.00 358.00 L 0.00 0.00 Z" />
<path fill="#ff8300" d=" M 171.30 1.42 C 204.60 -0.03 238.24 8.17 267.15 24.75 C 317.71 53.24 352.67 108.04 356.12 166.09 C 356.19 178.08 356.78 190.15 355.08 202.07 C 350.67 236.29 335.77 269.05 313.04 295.00 C 287.83 324.22 252.73 344.64 214.98 352.49 C 203.47 354.95 191.70 355.78 179.98 356.53 C 159.31 356.06 138.57 352.96 119.07 345.91 C 85.31 333.99 55.37 311.56 34.48 282.48 C 15.05 255.56 3.00 223.13 1.34 189.91 C 1.21 181.21 1.08 172.51 1.50 163.82 C 4.49 125.39 20.88 88.27 46.78 59.78 C 78.27 24.72 124.21 3.20 171.30 1.42 Z" />
<path fill="#ff7417" d=" M 167.37 10.37 C 178.69 9.72 190.19 9.39 201.39 11.51 C 216.63 13.73 231.14 19.34 244.95 25.99 C 259.48 33.99 273.52 43.01 285.83 54.19 C 294.09 60.56 300.58 68.80 307.32 76.68 C 324.47 97.59 337.27 122.52 341.54 149.38 C 342.33 158.24 343.39 167.09 343.00 176.00 C 343.90 197.66 338.66 219.09 331.30 239.32 C 323.75 258.09 313.30 275.78 299.94 290.99 C 291.13 299.53 282.93 308.88 272.66 315.73 C 251.33 330.83 226.07 340.39 200.05 342.93 C 189.72 343.16 179.38 342.88 169.05 343.05 C 163.54 343.21 158.08 342.36 152.67 341.41 C 124.46 336.95 96.88 326.33 74.19 308.77 C 38.35 280.62 15.67 237.15 11.11 192.00 C 11.03 184.59 9.20 177.20 10.49 169.80 C 12.21 137.65 24.62 106.47 43.93 80.86 C 55.33 66.42 68.25 53.07 83.06 42.10 C 106.90 22.89 137.18 13.22 167.37 10.37 Z" />
<path fill="#fdffcd" d=" M 177.38 36.47 C 201.22 35.17 225.15 42.10 245.34 54.66 C 275.07 73.06 297.90 101.86 310.29 134.45 C 318.91 157.58 322.12 183.18 316.57 207.43 C 309.40 241.28 288.28 271.23 260.86 291.91 C 244.65 303.62 226.60 313.27 207.01 317.77 C 179.18 322.15 149.73 320.63 123.64 309.32 C 109.54 302.93 96.58 294.18 85.00 283.94 C 74.46 274.41 64.81 263.77 57.40 251.61 C 42.72 227.99 35.19 199.80 37.14 171.99 C 39.92 120.92 71.65 72.06 118.03 50.06 C 136.49 41.05 157.17 38.42 177.38 36.47 Z" />
<path fill="#ff9c1c" d=" M 166.53 45.83 C 179.32 44.41 192.49 44.45 204.98 47.87 C 209.87 49.35 215.27 51.55 217.62 56.44 C 219.81 60.76 218.29 65.71 216.91 70.03 C 211.56 86.25 207.31 102.86 200.72 118.64 C 195.81 130.00 192.19 142.04 185.52 152.56 C 183.88 155.16 179.69 158.10 177.43 154.57 C 169.55 143.15 167.27 129.19 162.54 116.39 C 157.50 102.41 154.24 87.90 150.23 73.61 C 148.66 67.93 145.27 61.85 147.92 55.95 C 151.44 49.20 159.42 46.59 166.53 45.83 Z" />
<path fill="#ff9c1c" d=" M 118.45 68.60 C 121.90 68.02 125.93 67.79 128.77 70.23 C 132.87 73.51 134.93 78.50 136.76 83.26 C 144.08 102.10 153.45 120.04 161.49 138.57 C 164.14 144.69 167.22 151.15 166.45 158.01 C 166.44 160.81 163.67 162.70 161.06 162.70 C 154.46 162.82 148.01 160.97 141.71 159.16 C 121.95 152.99 104.48 141.56 86.70 131.27 C 81.84 128.37 76.69 125.30 73.68 120.32 C 71.99 117.02 73.68 113.28 75.23 110.28 C 80.56 100.67 86.90 91.52 94.88 83.91 C 101.42 77.17 108.91 70.40 118.45 68.60 Z" />
<path fill="#ff9c1c" d=" M 245.26 70.27 C 252.21 69.17 258.81 72.94 264.37 76.68 C 274.23 84.21 282.50 95.17 283.59 107.86 C 282.82 112.52 280.86 117.08 277.60 120.54 C 271.26 127.57 262.67 131.88 254.58 136.52 C 239.72 144.64 225.90 154.74 210.15 161.16 C 206.26 162.75 201.79 163.64 197.70 162.35 C 193.91 158.93 195.26 153.22 197.05 149.12 C 203.38 134.61 211.06 120.73 218.85 106.96 C 223.72 98.66 228.62 90.38 232.75 81.68 C 235.21 76.44 239.09 71.11 245.26 70.27 Z" />
<path fill="#ff9c1c" d=" M 288.36 141.52 C 293.06 139.64 297.72 142.99 300.77 146.31 C 306.02 151.80 307.45 159.67 307.68 166.99 C 308.10 178.36 307.63 190.23 302.59 200.66 C 300.38 205.21 296.40 209.62 291.09 210.15 C 265.61 210.36 242.87 197.32 219.86 188.12 C 214.42 186.04 207.97 184.34 204.96 178.85 C 204.72 175.43 207.29 172.67 210.02 171.03 C 214.33 168.44 219.09 166.77 223.66 164.72 C 240.72 157.48 257.80 149.87 275.98 145.87 C 280.31 145.03 284.29 143.14 288.36 141.52 Z" />
<path fill="#ff9c1c" d=" M 66.46 143.66 C 75.14 142.02 83.75 145.02 91.70 148.21 C 105.65 153.88 120.30 157.67 134.03 163.90 C 139.93 166.53 146.66 168.02 151.35 172.74 C 153.99 175.36 152.55 179.84 149.92 181.90 C 144.62 185.97 138.28 188.33 132.44 191.48 C 117.13 199.53 100.72 205.26 84.13 210.02 C 77.85 211.57 71.05 213.64 64.73 211.17 C 60.07 209.49 56.42 205.59 54.85 200.92 C 51.58 192.35 52.10 183.01 52.07 174.01 C 52.08 166.08 52.67 157.72 56.81 150.73 C 58.78 147.09 62.35 144.34 66.46 143.66 Z" />
<path fill="#000000" d=" M 148.88 192.92 C 153.16 191.09 158.84 188.74 162.93 192.19 C 164.16 194.25 163.89 196.78 163.87 199.09 C 163.98 205.49 159.97 210.83 157.44 216.43 C 153.52 224.97 148.38 232.85 144.38 241.35 C 137.88 251.87 133.32 263.43 126.93 274.01 C 124.72 277.85 121.51 280.95 118.20 283.83 C 114.04 283.93 109.79 284.28 105.72 283.24 C 92.85 278.86 82.04 268.69 77.12 255.99 C 75.66 250.49 75.19 244.20 77.83 238.97 C 80.63 234.81 83.37 230.42 87.42 227.35 C 97.76 218.77 109.64 212.25 121.81 206.65 C 131.19 202.81 140.22 198.17 148.88 192.92 Z" />
<path fill="#ff9c1c" d=" M 197.37 193.45 C 204.75 192.91 211.98 194.87 218.96 197.03 C 226.76 199.47 234.33 202.60 241.67 206.19 C 254.28 212.27 268.16 216.06 279.44 224.64 C 282.95 227.20 286.18 230.62 287.13 234.99 C 287.99 238.49 286.48 241.94 285.04 245.05 C 280.71 254.14 273.63 261.49 266.43 268.37 C 261.70 273.02 256.70 277.41 251.38 281.39 C 247.48 284.18 242.87 286.56 237.94 286.32 C 233.03 285.58 230.09 281.02 228.16 276.87 C 219.09 257.29 210.10 237.68 201.02 218.11 C 198.00 210.39 194.01 201.73 197.37 193.45 Z" />
<path fill="#ff9c1c" d=" M 176.43 203.38 C 179.19 201.46 182.75 202.94 184.72 205.27 C 187.82 208.94 189.34 213.61 191.06 218.02 C 193.37 224.55 196.33 230.82 198.82 237.29 C 204.98 253.01 209.92 269.18 214.41 285.45 C 215.54 290.69 216.62 297.24 212.53 301.50 C 208.25 305.22 202.56 306.81 197.05 307.56 C 183.46 308.92 169.62 307.90 156.42 304.38 C 152.11 303.18 147.46 301.94 144.31 298.56 C 141.92 296.01 142.02 292.26 141.85 289.01 C 141.76 276.27 147.39 264.54 152.05 252.99 C 157.68 240.04 160.58 225.98 167.47 213.57 C 169.73 209.65 172.35 205.60 176.43 203.38 Z" />
</svg>