<?xml version="1.0" encoding="utf8" standalone="no"?>
<svg viewBox="0 0 389.91351 535.711" xmlns="http://www.w3.org/2000/svg" xmlns:xlink="http://www.w3.org/1999/xlink">
<defs>
<linearGradient id="linearGradient3778">
<stop offset="0" stop-color="#fad20e"/>
<stop offset="1" stop-color="#fb1e09"/>
</linearGradient>
<linearGradient gradientUnits="userSpaceOnUse" id="linearGradient3972" x1="418.5" x2="335.5" xlink:href="#linearGradient3778"/>
<radialGradient cx="102.00002" cy="208.86218" gradientUnits="userSpaceOnUse" id="radialGradient3881" r="12.0022">
<stop offset="0" stop-color="#2ce330"/>
<stop offset="1" stop-color="#0964fb"/>
</radialGradient>
<radialGradient cx="102.00002" cy="208.86218" gradientUnits="userSpaceOnUse" id="radialGradient3907" r="12.0022">
<stop offset="0" stop-color="#f40dfa"/>
<stop offset="1" stop-color="#10f4f7"/>
</radialGradient>
<radialGradient cx="102.00002" cy="208.86218" gradientUnits="userSpaceOnUse" id="radialGradient3929" r="12.0022">
<stop offset="0" stop-color="#8a63de"/>
<stop offset="1" stop-color="#ff007a"/>
</radialGradient>
<radialGradient cx="102.00002" cy="208.86218" gradientUnits="userSpaceOnUse" id="radialGradient3806" r="12.0022" xlink:href="#linearGradient3778"/>
</defs>
<title>Christmas Tree</title>
<g transform="translate(-182.08869,-50.65121)">
<path d="m378.375,109.375v1.78125c-19.12448,25.71212-158.29516,127.04368-33.375,89.21875 18.65298,1.05681-223.30143,149.16161 0,84-22.11149,25.21846-270.40995,150.09844 0,82 3.04357.57416-379.21913,185.32532 17,91l-7.5,86h23.5l.6875-298.375-7.3125,298.375 32.5-1-8.5-85c393.14106,89.92665.0303-96.20813 17-91 269.09302,63.74028 3.7655-67.5101 0-82 226.34956,69.56447 0-56 0-84 122.17972,38.48325-21.62746-61.5611-33.375-89.1875v-1.8125c-.0738.33365-.18561.66854-.3125,1.03125-.1282-.36558-.23816-.69516-.3125-1.03125z" fill="#008000"/>
<path d="m362,465.36218-7,77h50l-9-78z" fill="#520"/>
<path d="m356,268.36218c-20.70184,20.42877-84.71228,29.62804-96,25-26.71865-4.18684 53.76665-12.27097 96-25z" fill="#217844"/>
<path d="m335,353.36218c-20.70184,20.42877-84.71228,29.62804-96,25-26.71865-4.18684 53.76665-12.27097 96-25z" fill="#217844"/>
<path d="m322,449.36218c-20.70184,20.42877-84.71228,29.62804-96,25-26.71865-4.18684 53.76665-12.27097 96-25z" fill="#217844"/>
<path d="m437.6809,449.36218c20.70184,20.42877 84.71228,29.62804 96,25 26.71865-4.18684-53.76665-12.27097-96-25z" fill="#217844"/>
<path d="m403.6809,347.36218c20.70184,20.42877 84.71228,29.62804 96,25 26.71865-4.18684-53.76665-12.27097-96-25z" fill="#217844"/>
<path d="m393.6809,268.36218c20.70184,20.42877 84.71228,29.62804 96,25 26.71865-4.18684-53.76665-12.27097-96-25z" fill="#217844"/>
<path d="m392.6809,180.36218c12.32459,17.3068 50.43243,25.10022 57.15244,21.17945 15.90662-3.547-32.00933-10.3957-57.15244-21.17945z" fill="#217844"/>
<path d="m366,180.36218c-12.32459,17.3068-50.43243,25.10022-57.15244,21.17945-15.90662-3.547 32.00933-10.3957 57.15244-21.17945z" fill="#217844"/>
<path d="m96.20474,198.79216c5.80333-3.06728 13.10248-1.04529 16.30311,4.51623s1.09074,12.55655-4.71259,15.62382-13.10248,1.04528-16.30311-4.51624c-3.19383-5.5497-1.10033-12.52966 4.68104-15.60708" fill="url(#radialGradient3806)" transform="translate(175,91)"/>
<path d="m96.20474,198.79216c5.80333-3.06728 13.10248-1.04529 16.30311,4.51623s1.09074,12.55655-4.71259,15.62382-13.10248,1.04528-16.30311-4.51624c-3.19383-5.5497-1.10033-12.52966 4.68104-15.60708" fill="url(#radialGradient3806)" transform="translate(251,20)"/>
<path d="m96.20474,198.79216c5.80333-3.06728 13.10248-1.04529 16.30311,4.51623s1.09074,12.55655-4.71259,15.62382-13.10248,1.04528-16.30311-4.51624c-3.19383-5.5497-1.10033-12.52966 4.68104-15.60708" fill="url(#radialGradient3806)" transform="translate(334,151)"/>
<path d="m96.20474,198.79216c5.80333-3.06728 13.10248-1.04529 16.30311,4.51623s1.09074,12.55655-4.71259,15.62382-13.10248,1.04528-16.30311-4.51624c-3.19383-5.5497-1.10033-12.52966 4.68104-15.60708" fill="url(#radialGradient3806)" transform="translate(382,265)"/>
<path d="m96.20474,198.79216c5.80333-3.06728 13.10248-1.04529 16.30311,4.51623s1.09074,12.55655-4.71259,15.62382-13.10248,1.04528-16.30311-4.51624c-3.19383-5.5497-1.10033-12.52966 4.68104-15.60708" fill="url(#radialGradient3806)" transform="translate(199,204)"/>
<path d="m96.20474,198.79216c5.80333-3.06728 13.10248-1.04529 16.30311,4.51623s1.09074,12.55655-4.71259,15.62382-13.10248,1.04528-16.30311-4.51624c-3.19383-5.5497-1.10033-12.52966 4.68104-15.60708" fill="url(#radialGradient3806)" transform="translate(269,116)"/>
<path d="m96.20474,198.79216c5.80333-3.06728 13.10248-1.04529 16.30311,4.51623s1.09074,12.55655-4.71259,15.62382-13.10248,1.04528-16.30311-4.51624c-3.19383-5.5497-1.10033-12.52966 4.68104-15.60708" fill="url(#radialGradient3881)" transform="translate(329.99998,72.5)"/>
<path d="m96.20474,198.79216c5.80333-3.06728 13.10248-1.04529 16.30311,4.51623s1.09074,12.55655-4.71259,15.62382-13.10248,1.04528-16.30311-4.51624c-3.19383-5.5497-1.10033-12.52966 4.68104-15.60708" fill="url(#radialGradient3881)" transform="translate(304.99998,-43.5)"/>
<path d="m96.20474,198.79216c5.80333-3.06728 13.10248-1.04529 16.30311,4.51623s1.09074,12.55655-4.71259,15.62382-13.10248,1.04528-16.30311-4.51624c-3.19383-5.5497-1.10033-12.52966 4.68104-15.60708" fill="url(#radialGradient3881)" transform="translate(126.99998,174.5)"/>
<path d="m96.20474,198.79216c5.80333-3.06728 13.10248-1.04529 16.30311,4.51623s1.09074,12.55655-4.71259,15.62382-13.10248,1.04528-16.30311-4.51624c-3.19383-5.5497-1.10033-12.52966 4.68104-15.60708" fill="url(#radialGradient3881)" transform="translate(226.99998,249.5)"/>
<path d="m96.20474,198.79216c5.80333-3.06728 13.10248-1.04529 16.30311,4.51623s1.09074,12.55655-4.71259,15.62382-13.10248,1.04528-16.30311-4.51624c-3.19383-5.5497-1.10033-12.52966 4.68104-15.60708" fill="url(#radialGradient3881)" transform="translate(202.99998,-5.5)"/>
<path d="m96.20474,198.79216c5.80333-3.06728 13.10248-1.04529 16.30311,4.51623s1.09074,12.55655-4.71259,15.62382-13.10248,1.04528-16.30311-4.51624c-3.19383-5.5497-1.10033-12.52966 4.68104-15.60708" fill="url(#radialGradient3907)" transform="translate(241.99998,-57.5)"/>
<path d="m96.20474,198.79216c5.80333-3.06728 13.10248-1.04529 16.30311,4.51623s1.09074,12.55655-4.71259,15.62382-13.10248,1.04528-16.30311-4.51624c-3.19383-5.5497-1.10033-12.52966 4.68104-15.60708" fill="url(#radialGradient3907)" transform="translate(396.99998,77.5)"/>
<path d="m96.20474,198.79216c5.80333-3.06728 13.10248-1.04529 16.30311,4.51623s1.09074,12.55655-4.71259,15.62382-13.10248,1.04528-16.30311-4.51624c-3.19383-5.5497-1.10033-12.52966 4.68104-15.60708" fill="url(#radialGradient3907)" transform="translate(343.99998,209.5)"/>
<path d="m96.20474,198.79216c5.80333-3.06728 13.10248-1.04529 16.30311,4.51623s1.09074,12.55655-4.71259,15.62382-13.10248,1.04528-16.30311-4.51624c-3.19383-5.5497-1.10033-12.52966 4.68104-15.60708" fill="url(#radialGradient3907)" transform="translate(105.99998,265.5)"/>
<path d="m96.20474,198.79216c5.80333-3.06728 13.10248-1.04529 16.30311,4.51623s1.09074,12.55655-4.71259,15.62382-13.10248,1.04528-16.30311-4.51624c-3.19383-5.5497-1.10033-12.52966 4.68104-15.60708" fill="url(#radialGradient3929)" transform="translate(204.99998,121.5)"/>
<path d="m96.20474,198.79216c5.80333-3.06728 13.10248-1.04529 16.30311,4.51623s1.09074,12.55655-4.71259,15.62382-13.10248,1.04528-16.30311-4.51624c-3.19383-5.5497-1.10033-12.52966 4.68104-15.60708" fill="url(#radialGradient3929)" transform="translate(320.99998,19.5)"/>
<path d="m96.20474,198.79216c5.80333-3.06728 13.10248-1.04529 16.30311,4.51623s1.09074,12.55655-4.71259,15.62382-13.10248,1.04528-16.30311-4.51624c-3.19383-5.5497-1.10033-12.52966 4.68104-15.60708" fill="url(#radialGradient3929)" transform="translate(284.99998,194.5)"/>
<path d="m96.20474,198.79216c5.80333-3.06728 13.10248-1.04529 16.30311,4.51623s1.09074,12.55655-4.71259,15.62382-13.10248,1.04528-16.30311-4.51624c-3.19383-5.5497-1.10033-12.52966 4.68104-15.60708" fill="url(#radialGradient3929)" transform="translate(457.99998,256.5)"/>
<path d="m96.20474,198.79216c5.80333-3.06728 13.10248-1.04529 16.30311,4.51623s1.09074,12.55655-4.71259,15.62382-13.10248,1.04528-16.30311-4.51624c-3.19383-5.5497-1.10033-12.52966 4.68104-15.60708" fill="url(#radialGradient3929)" transform="translate(418.99998,164.5)"/>
<path d="m418,502.36218-82-2 10,86h61z" fill="url(#linearGradient3972)"/>
<path d="m122.28,159.24218 111.62197,60.18866-126.45676-9.53033-22.74972,124.75812-30.01341-123.21255-125.68207,16.9161 107.90745-66.61922-54.92607-114.30339 96.70388,82.03961 91.7359-87.55948z" fill="#f60" transform="matrix(.28542,.13979,-.14685,.29985,378.85401,38.94535)"/>
<path d="m122.28,159.24218 111.62197,60.18866-126.45676-9.53033-22.74972,124.75812-30.01341-123.21255-125.68207,16.9161 107.90745-66.61922-54.92607-114.30339 96.70388,82.03961 91.7359-87.55948z" fill="#fc0" transform="matrix(.19816,.0754,-.07959,.20509,373.88666,61.09964)"/>
</g>
</svg>
